HIERARCHY
ROOT Hips
{
	OFFSET 0.000000 0.000000 0.000000
	CHANNELS 6 Xposition Yposition Zposition Zrotation Yrotation Xrotation 
	JOINT LowerBack
	{
		OFFSET 0.000000 0.000000 0.000000
		CHANNELS 3 Zrotation Yrotation Xrotation
		JOINT Spine
		{
			OFFSET 0.028270 2.035590 -0.193380
			CHANNELS 3 Zrotation Yrotation Xrotation
			JOINT Spine1
			{
				OFFSET 0.056720 2.048850 -0.042750
				CHANNELS 3 Zrotation Yrotation Xrotation
				JOINT Neck
				{
					OFFSET 0.000000 0.000000 0.000000
					CHANNELS 3 Zrotation Yrotation Xrotation
					JOINT Neck1
					{
						OFFSET -0.054170 1.746240 0.172020
						CHANNELS 3 Zrotation Yrotation Xrotation
						JOINT Head
						{
							OFFSET 0.104070 1.761360 -0.123970
							CHANNELS 3 Zrotation Yrotation Xrotation
							End Site
							{
								OFFSET 0.000000 0.000000 0.000000
							}
						}
					}
				}
				JOINT LeftShoulder
				{
					OFFSET 0.000000 0.000000 0.000000
					CHANNELS 3 Zrotation Yrotation Xrotation
					JOINT LeftArm
					{
						OFFSET 3.362410 1.200890 -0.311210
						CHANNELS 3 Zrotation Yrotation Xrotation
						JOINT LeftForeArm
						{
							OFFSET 4.983000 -0.000000 -0.000000
							CHANNELS 3 Zrotation Yrotation Xrotation
							JOINT LeftHand
							{
								OFFSET 3.483560 -0.000000 -0.000000
								CHANNELS 3 Zrotation Yrotation Xrotation
								JOINT LeftFingerBase
								{
									OFFSET 0.000000 0.000000 0.000000
									CHANNELS 3 Zrotation Yrotation Xrotation
									JOINT LeftHandIndex1
									{
										OFFSET 0.715260 -0.000000 -0.000000
										CHANNELS 3 Zrotation Yrotation Xrotation
										End Site
										{
											OFFSET 0.000000 0.000000 0.000000
										}
									}
								}
								JOINT LThumb
								{
									OFFSET 0.000000 0.000000 0.000000
									CHANNELS 3 Zrotation Yrotation Xrotation
									End Site
									{
										OFFSET 0.000000 0.000000 0.000000
									}
								}
							}
						}
					}
				}
				JOINT RightShoulder
				{
					OFFSET 0.000000 0.000000 0.000000
					CHANNELS 3 Zrotation Yrotation Xrotation
					JOINT RightArm
					{
						OFFSET -3.136600 1.374050 -0.404650
						CHANNELS 3 Zrotation Yrotation Xrotation
						JOINT RightForeArm
						{
							OFFSET -5.241900 -0.000000 -0.000000
							CHANNELS 3 Zrotation Yrotation Xrotation
							JOINT RightHand
							{
								OFFSET -3.444170 -0.000000 -0.000000
								CHANNELS 3 Zrotation Yrotation Xrotation
								JOINT RightFingerBase
								{
									OFFSET 0.000000 0.000000 0.000000
									CHANNELS 3 Zrotation Yrotation Xrotation
									JOINT RightHandIndex1
									{
										OFFSET -0.622530 -0.000000 -0.000000
										CHANNELS 3 Zrotation Yrotation Xrotation
										End Site
										{
											OFFSET 0.000000 0.000000 0.000000
										}
									}
								}
								JOINT RThumb
								{
									OFFSET 0.000000 0.000000 0.000000
									CHANNELS 3 Zrotation Yrotation Xrotation
									End Site
									{
										OFFSET 0.000000 0.000000 0.000000
									}
								}
							}
						}
					}
				}
			}
		}
	}
}
}
MOTION
Frames: 17
Frame Time: 0.008333
3.701927 17.098301 -1.150422 158.154084 -82.913136 -150.818081 -2.265017 -1.673493 0.992549 -0.996535 -1.535399 -2.571892 -5.471639 -1.557896 0.567697 8.592424 -11.707538 -7.863062 -2.172333 -0.160114 -0.074565 0.000000 0.000000 0.000000 3.641049 7.696591 1.297974 -61.311657 11.110844 14.483875 -2.595802 -52.053499 0.017093 -4.962457 -8.734590 0.379359 -0.056015 0.078345 0.000000 0.000000 0.000000 0.000000 0.000000 0.000000 0.000000 9.190754 -7.403359 0.611791 68.521483 5.779980 19.972527 2.432585 45.979051 0.023537 2.163898 13.546927 0.254850 0.061212 -0.195006 0.000000 0.000000 0.000000 0.000000 0.000000 0.000000 0.000000 
3.731694 17.099153 -1.190036 155.566258 -82.893665 -148.497847 -2.459618 -1.704561 1.037077 -1.023110 -1.552285 -2.571201 -5.404079 -1.577612 0.502349 8.469875 -11.609388 -7.783161 -2.157036 -0.160026 -0.053156 0.000000 0.000000 0.000000 3.982883 7.324952 1.296995 -61.921935 11.417870 14.195077 -2.603310 -51.771609 0.016896 -4.970040 -8.751756 0.380843 -0.054385 0.078987 0.000000 0.000000 0.000000 0.000000 0.000000 0.000000 0.000000 8.983533 -7.297171 0.623880 68.610295 6.200047 20.215574 2.421187 45.885519 0.023356 2.116656 13.535823 0.248947 0.060947 -0.196517 0.000000 0.000000 0.000000 0.000000 0.000000 0.000000 0.000000 
3.762369 17.099955 -1.228523 152.782819 -82.888279 -145.976539 -2.667132 -1.741896 1.092896 -1.052037 -1.574460 -2.568219 -5.334763 -1.602527 0.437469 8.347535 -11.507464 -7.702322 -2.140020 -0.159785 -0.031770 0.000000 0.000000 0.000000 4.357248 6.944415 1.297839 -62.547704 11.688237 13.938769 -2.610898 -51.488886 0.016720 -4.988619 -8.768563 0.383229 -0.052651 0.079890 0.000000 0.000000 0.000000 0.000000 0.000000 0.000000 0.000000 8.769958 -7.189616 0.635286 68.694119 6.643787 20.441911 2.408022 45.807049 0.023162 2.067456 13.528705 0.242944 0.060622 -0.198242 0.000000 0.000000 0.000000 0.000000 0.000000 0.000000 0.000000 
3.793450 17.100805 -1.266023 149.815784 -82.892975 -143.263805 -2.886158 -1.783885 1.155053 -1.083436 -1.600540 -2.564095 -5.265146 -1.631265 0.373169 8.227363 -11.398449 -7.619438 -2.121788 -0.159457 -0.010006 0.000000 0.000000 0.000000 4.759978 6.560069 1.300005 -63.175017 11.918870 13.725938 -2.618595 -51.210165 0.016565 -5.023082 -8.784381 0.386714 -0.050804 0.080981 0.000000 0.000000 0.000000 0.000000 0.000000 0.000000 0.000000 8.553398 -7.076443 0.644976 68.772873 7.097589 20.639981 2.392974 45.747366 0.022954 2.019250 13.524987 0.237140 0.060190 -0.200170 0.000000 0.000000 0.000000 0.000000 0.000000 0.000000 0.000000 
3.824677 17.101636 -1.302143 146.827750 -82.902472 -140.521915 -3.098099 -1.824817 1.221370 -1.113764 -1.626027 -2.558448 -5.195005 -1.659184 0.314259 8.107810 -11.291917 -7.539727 -2.101313 -0.158892 0.010794 0.000000 0.000000 0.000000 5.182834 6.198152 1.302250 -63.792554 12.081459 13.582603 -2.626568 -50.928562 0.016445 -5.072105 -8.800796 0.391401 -0.048919 0.082274 0.000000 0.000000 0.000000 0.000000 0.000000 0.000000 0.000000 8.330223 -6.965424 0.651520 68.841306 7.569271 20.818965 2.376299 45.705531 0.022732 1.965732 13.525175 0.230836 0.059746 -0.202289 0.000000 0.000000 0.000000 0.000000 0.000000 0.000000 0.000000 
3.855550 17.102755 -1.337396 143.745537 -82.912833 -137.672643 -3.314050 -1.864632 1.284545 -1.145824 -1.650365 -2.553593 -5.127072 -1.685852 0.257389 7.993662 -11.179815 -7.459418 -2.080209 -0.158286 0.031764 0.000000 0.000000 0.000000 5.621507 5.847232 1.304512 -64.381844 12.194509 13.504705 -2.634170 -50.662935 0.016343 -5.141417 -8.815334 0.397688 -0.046925 0.083646 0.000000 0.000000 0.000000 0.000000 0.000000 0.000000 0.000000 8.109810 -6.847466 0.655317 68.901126 8.034118 20.955019 2.357853 45.687493 0.022493 1.912620 13.527758 0.224531 0.059205 -0.204615 0.000000 0.000000 0.000000 0.000000 0.000000 0.000000 0.000000 
3.885762 17.104223 -1.371561 140.681784 -82.921556 -134.826774 -3.522001 -1.898927 1.342706 -1.177377 -1.669938 -2.549486 -5.061571 -1.707573 0.205298 7.884444 -11.069018 -7.382536 -2.057997 -0.157546 0.051859 0.000000 0.000000 0.000000 6.067735 5.523619 1.306111 -64.931014 12.241842 13.507495 -2.641103 -50.414211 0.016271 -5.228069 -8.829072 0.405275 -0.044873 0.085115 0.000000 0.000000 0.000000 0.000000 0.000000 0.000000 0.000000 7.890875 -6.727801 0.656022 68.949042 8.494289 21.050619 2.337955 45.692540 0.022239 1.855186 13.532731 0.217828 0.058642 -0.207150 0.000000 0.000000 0.000000 0.000000 0.000000 0.000000 0.000000 
3.915301 17.106151 -1.404798 137.650848 -82.925666 -131.998877 -3.722784 -1.925710 1.393745 -1.208919 -1.682762 -2.546920 -4.999815 -1.722377 0.156659 7.782113 -10.960352 -7.309412 -2.035256 -0.156718 0.071031 0.000000 0.000000 0.000000 6.515239 5.224601 1.306854 -65.426407 12.230515 13.589122 -2.646453 -50.195803 0.016220 -5.330642 -8.840354 0.414063 -0.042743 0.086644 0.000000 0.000000 0.000000 0.000000 0.000000 0.000000 0.000000 7.677456 -6.605667 0.654493 68.984023 8.941399 21.097771 2.316692 45.722496 0.021969 1.791750 13.538870 0.210425 0.058076 -0.209921 0.000000 0.000000 0.000000 0.000000 0.000000 0.000000 0.000000 
3.944019 17.108624 -1.437116 134.688530 -82.923994 -129.223532 -3.914037 -1.942987 1.437616 -1.240127 -1.687004 -2.546042 -4.942392 -1.728412 0.111063 7.687159 -10.856158 -7.241513 -2.012100 -0.155790 0.088875 0.000000 0.000000 0.000000 6.957494 4.950893 1.306805 -65.858132 12.162165 13.747945 -2.649427 -50.017374 0.016186 -5.445145 -8.849259 0.423653 -0.040544 0.088247 0.000000 0.000000 0.000000 0.000000 0.000000 0.000000 0.000000 7.470401 -6.482139 0.651678 69.004993 9.371963 21.093150 2.294273 45.777499 0.021678 1.719754 13.545156 0.201922 0.057546 -0.212945 0.000000 0.000000 0.000000 0.000000 0.000000 0.000000 0.000000 
3.971821 17.111724 -1.468704 131.790206 -82.913634 -126.494471 -4.099311 -1.949840 1.472553 -1.271943 -1.681550 -2.547800 -4.890400 -1.724621 0.065831 7.600963 -10.759186 -7.178004 -1.989090 -0.154825 0.105666 0.000000 0.000000 0.000000 7.388694 4.687707 1.305520 -66.217197 12.058668 13.967642 -2.648570 -49.898174 0.016155 -5.568124 -8.853325 0.433742 -0.038220 0.089891 0.000000 0.000000 0.000000 0.000000 0.000000 0.000000 0.000000 7.273108 -6.359041 0.649712 69.012205 9.780755 21.035750 2.271154 45.855565 0.021371 1.636360 13.551372 0.192021 0.057116 -0.216241 0.000000 0.000000 0.000000 0.000000 0.000000 0.000000 0.000000 
3.999125 17.115328 -1.499276 129.012503 -82.896944 -123.875712 -4.270588 -1.945341 1.508636 -1.302495 -1.665856 -2.549772 -4.842737 -1.710291 0.022350 7.520657 -10.668045 -7.122226 -1.965779 -0.153715 0.120271 0.000000 0.000000 0.000000 7.804891 4.451098 1.304687 -66.502565 11.899302 14.250574 -2.644194 -49.829543 0.016145 -5.690898 -8.855330 0.443732 -0.035894 0.091697 0.000000 0.000000 0.000000 0.000000 0.000000 0.000000 0.000000 7.080668 -6.234132 0.648228 69.004901 10.171075 20.923791 2.247110 45.956499 0.021034 1.541039 13.555114 0.180621 0.056756 -0.219811 0.000000 0.000000 0.000000 0.000000 0.000000 0.000000 0.000000 
4.025915 17.119441 -1.529015 126.325889 -82.871648 -121.339327 -4.433077 -1.929830 1.548121 -1.332882 -1.639926 -2.552052 -4.799858 -1.685452 -0.022256 7.446318 -10.582905 -7.072171 -1.942594 -0.152525 0.133210 0.000000 0.000000 0.000000 8.203696 4.225354 1.304125 -66.710726 11.703853 14.580438 -2.635160 -49.823561 0.016144 -5.806056 -8.855076 0.453024 -0.033551 0.093664 0.000000 0.000000 0.000000 0.000000 0.000000 0.000000 0.000000 6.894330 -6.107432 0.649019 68.984345 10.537961 20.757314 2.222366 46.079443 0.020665 1.434400 13.555184 0.167821 0.056473 -0.223654 0.000000 0.000000 0.000000 0.000000 0.000000 0.000000 0.000000 
4.052520 17.123920 -1.557772 123.735967 -82.838658 -118.898471 -4.584799 -1.904109 1.600936 -1.362427 -1.604610 -2.552533 -4.760906 -1.650837 -0.068135 7.375313 -10.498667 -7.027909 -1.919540 -0.151234 0.144255 0.000000 0.000000 0.000000 8.584328 4.016359 1.305234 -66.844213 11.463540 14.952647 -2.621874 -49.871347 0.016166 -5.904904 -8.855482 0.461115 -0.031301 0.095871 0.000000 0.000000 0.000000 0.000000 0.000000 0.000000 0.000000 6.710661 -5.974079 0.651776 68.951349 10.879598 20.533721 2.196605 46.225030 0.020251 1.320458 13.549104 0.154021 0.056180 -0.227748 0.000000 0.000000 0.000000 0.000000 0.000000 0.000000 0.000000 
4.078835 17.128723 -1.585840 121.215871 -82.790062 -116.527566 -4.734966 -1.869591 1.663675 -1.392923 -1.560786 -2.552728 -4.726094 -1.607469 -0.119591 7.307307 -10.419581 -6.984591 -1.897119 -0.149970 0.154869 0.000000 0.000000 0.000000 8.941375 3.792033 1.306355 -66.903749 11.225979 15.325172 -2.602936 -49.994923 0.016172 -5.990190 -8.850068 0.467807 -0.028987 0.098201 0.000000 0.000000 0.000000 0.000000 0.000000 0.000000 0.000000 6.531460 -5.839133 0.659238 68.907252 11.199634 20.271352 2.170825 46.381854 0.019809 1.195633 13.541005 0.138922 0.056001 -0.232063 0.000000 0.000000 0.000000 0.000000 0.000000 0.000000 0.000000 
4.105032 17.133694 -1.613088 118.768461 -82.725509 -114.237116 -4.882734 -1.827808 1.744690 -1.423831 -1.509998 -2.550672 -4.694280 -1.556796 -0.175984 7.239450 -10.340700 -6.941019 -1.875346 -0.148738 0.165219 0.000000 0.000000 0.000000 9.275690 3.558680 1.308280 -66.894796 10.983060 15.695637 -2.579283 -50.178842 0.016172 -6.055422 -8.842195 0.472800 -0.026717 0.100691 0.000000 0.000000 0.000000 0.000000 0.000000 0.000000 0.000000 6.353609 -5.699052 0.670330 68.852808 11.498311 19.973542 2.144770 46.548864 0.019330 1.065430 13.529742 0.123223 0.055839 -0.236541 0.000000 0.000000 0.000000 0.000000 0.000000 0.000000 0.000000 
4.131027 17.138757 -1.639463 116.392011 -82.643638 -112.029591 -5.028534 -1.780695 1.848021 -1.454870 -1.454161 -2.545235 -4.664461 -1.500702 -0.236413 7.169280 -10.256913 -6.895139 -1.854339 -0.147571 0.175789 0.000000 0.000000 0.000000 9.587641 3.321472 1.311416 -66.822892 10.731057 16.061484 -2.551997 -50.407685 0.016178 -6.096493 -8.833669 0.475894 -0.024589 0.103333 0.000000 0.000000 0.000000 0.000000 0.000000 0.000000 0.000000 6.174854 -5.550726 0.683644 68.788765 11.775430 19.644776 2.118278 46.724241 0.018814 0.936056 13.515189 0.107523 0.055601 -0.241110 0.000000 0.000000 0.000000 0.000000 0.000000 0.000000 0.000000 
4.156643 17.143849 -1.665170 114.074460 -82.537597 -109.895081 -5.180014 -1.730448 1.969499 -1.487453 -1.395077 -2.537497 -4.636606 -1.441097 -0.302317 7.097081 -10.172476 -6.842517 -1.834643 -0.146595 0.187945 0.000000 0.000000 0.000000 9.874891 3.060836 1.313912 -66.691633 10.502399 16.396016 -2.520989 -50.686726 0.016156 -6.120389 -8.820245 0.477287 -0.022480 0.105974 0.000000 0.000000 0.000000 0.000000 0.000000 0.000000 0.000000 5.998877 -5.400800 0.699912 68.715590 12.037921 19.307347 2.092211 46.896482 0.018279 0.805797 13.502417 0.091722 0.055375 -0.245697 0.000000 0.000000 0.000000 0.000000 0.000000 0.000000 0.000000 
